<svg width="570" height="330" viewBox="0 0 570 330" fill="none" xmlns="http://www.w3.org/2000/svg">
<path d="M92.5646 110.848C92.2751 110.74 91.6206 110.448 91.0191 110.302C90.34 110.137 89.5468 109.902 88.2913 109.774C87.0857 109.651 86.1563 109.827 85.8291 109.991C85.2179 110.296 84.8462 111.136 84.3895 111.665C83.8511 112.289 83.5351 113.138 83.0784 113.814C82.6441 114.456 82.1868 115.07 81.5503 115.563C80.6524 116.258 79.8573 116.165 78.858 116.292C76.3783 116.61 75.6331 116.42 74.8486 116.746C74.4138 116.927 74.1362 117.22 74.045 117.511C73.8361 118.176 74.2804 119.075 74.4083 120.13C74.597 121.687 74.3176 123.509 74.4083 124.722C74.4602 125.415 74.5361 126.861 74.3547 128.253C74.2594 128.985 74.0991 129.855 73.7729 130.621C73.3028 131.725 73.0807 132.622 72.789 133.354C72.5582 133.933 72.4251 134.591 72.1154 135.32C71.6037 136.523 71.2604 137.36 70.6414 137.762C70.036 138.155 69.6214 138.924 69.2019 139.582C68.8535 140.128 68.4917 140.71 68.0732 141.33C67.4299 142.283 66.9642 143.004 66.1622 143.788C65.6152 144.323 65.0695 144.789 64.5221 145.282C63.9996 145.753 63.6491 146.393 63.1383 146.885C62.5877 147.414 62.1194 147.958 61.4999 148.704C60.726 149.637 60.334 150.181 59.8243 150.872C59.0897 151.868 58.151 152.401 57.3845 152.822C56.6745 153.212 56.182 153.677 55.6357 154.024C55.0209 154.414 54.2896 154.697 53.7416 155.044C53.1816 155.398 50.3408 155.209 48.1714 155.408C47.3027 155.488 46.604 155.937 45.8031 156.1C44.8603 156.293 43.6582 157.134 42.7426 158.028C42.1917 158.566 42.1963 159.575 41.9401 160.215C41.7088 160.792 41.2501 161.902 40.8114 162.8C40.4265 163.587 40.5551 164.383 40.3017 165.094C39.9504 166.081 39.1741 166.642 38.808 167.334C38.4647 167.984 38.0443 168.644 37.3182 169.626C36.2102 171.124 35.3848 172.217 34.9499 172.326C34.6658 172.397 34.2266 172.363 33.9676 172.435C33.7087 172.507 33.6366 172.652 33.5994 172.834C33.4394 173.62 33.8158 174.435 34.2703 175.183C34.7459 175.966 35.6711 176.076 36.2737 176.676C36.9518 177.352 37.2029 178.006 37.6941 178.498C38.1975 179.004 38.3677 179.682 38.6966 180.319C39.0062 180.918 39.1325 181.683 39.5521 182.304C39.9708 182.923 40.553 183.578 40.9359 184.143C41.4728 184.936 42.4104 185.545 42.9387 186.382C43.3341 187.009 43.903 187.621 44.4504 188.114C44.9502 188.564 45.3234 189.476 45.8888 189.972C46.3267 190.355 47.0345 190.355 47.7633 190.482C48.9483 190.69 49.694 190.247 50.9483 190.227C52.3272 190.205 53.2275 192.101 53.9552 192.593C54.6954 193.095 55.4478 193.523 56.1591 193.651C56.8228 193.77 57.633 193.416 59.36 193.306C60.3358 193.243 61.1644 192.651 61.9495 192.342C62.9589 191.943 63.6425 191.959 64.5527 191.957C65.7482 191.956 66.3741 192.503 67.0674 192.83C67.7436 193.15 68.1595 193.814 68.9052 194.25C70.2354 195.029 71.0725 194.872 71.9641 194.962C73.5075 195.119 74.2411 194.546 74.753 194.09C75.2868 193.615 75.6266 193.016 76.734 192.723C77.6626 192.478 78.5395 192.722 79.1208 192.867C80.5223 193.216 81.199 194.614 81.7093 195.215C82.2055 195.8 82.4381 196.832 83.1286 198.127C83.5369 198.893 84.3677 199.203 84.6785 199.786C84.9589 200.312 85.351 200.842 85.952 201.516C86.4681 202.095 86.6272 202.918 86.9725 203.737C87.3359 204.599 87.6084 205.501 88.0471 206.142C88.397 206.654 88.8103 207.288 89.5932 207.836C90.2628 208.304 91.0306 208.529 91.7424 208.747C92.9258 209.108 94.3456 208.894 95.1476 208.531C95.8128 208.23 96.5287 207.585 97.3875 207.292C98.1923 207.017 99.3302 206.53 100.483 205.855C101.112 205.486 101.813 205.507 103.176 205.488C104.244 205.473 104.8 206.233 105.455 206.743C106.075 207.226 107.127 207.325 108.385 207.727C109.432 208.061 110.333 208.237 111.444 208.203C113.075 208.153 113.974 205.702 114.725 204.218C115.366 202.952 115.726 202.085 115.892 201.557C116.09 200.925 116.456 200.193 117.545 197.577C117.993 196.5 118.458 195.894 118.932 195.329C119.663 194.457 120.241 193.746 121.224 193.252C121.794 192.966 123.004 193.014 124.82 193.086C128.397 193.228 129.166 194.104 130.383 194.488C131.796 194.933 134.979 194.872 136.993 194.69C138.817 194.526 140.855 194.035 142.111 193.798C143.568 193.524 145.262 193.488 145.919 193.342C146.315 193.254 146.685 193.16 146.904 192.889C147.555 192.08 146.399 190.835 145.832 189.794C145.656 189.47 145.486 189.191 145.141 189.009C144.28 188.555 142.216 188.718 141.081 188.408C139.796 188.057 139.15 187.807 138.204 187.171C137.389 186.624 136.312 186.023 135.599 185.586C134.887 185.149 134.161 184.712 133.36 183.93C132.401 182.995 131.576 182.457 130.737 181.798C130.195 181.373 129.5 180.925 128.553 180.215C127.443 179.383 126.587 178.886 124.949 178.102C123.982 177.639 122.262 176.74 121.012 175.989C120.381 175.61 119.811 174.916 119.028 174.387C117.876 173.608 117.225 172.877 115.789 171.84C114.052 170.586 113.183 169.162 112.471 167.961C111.867 166.941 111.072 165.2 110.63 163.899C110.397 163.211 110.193 162.387 109.975 161.586C109.696 160.563 109.828 159.874 109.702 159.054C109.589 158.323 109.428 157.761 109.138 157.069C108.813 156.295 108.301 155.578 107.773 154.522C106.95 152.873 106.153 152.226 105.569 151.678C104.818 150.972 103.283 149.608 101.548 148.112C100.695 147.376 100.143 146.835 99.5597 146.07C98.9104 145.219 98.4299 143.959 98.2288 143.102C97.8902 141.658 97.9557 139.514 97.8278 138.623C97.6939 137.688 97.3001 136.892 96.8461 135.855C96.5342 135.142 95.884 133.876 95.4792 132.903C95.0918 131.972 94.4964 130.847 94.3134 129.918C94.1595 129.136 94.0943 127.972 94.0036 126.589C93.8901 124.859 94.0211 123.597 94.0757 122.603C94.2075 120.207 94.0222 118.389 93.9129 117.971C93.6164 116.837 93.076 115.223 92.893 114.384C92.8564 114.2 92.8203 114.056 92.8017 113.477C92.7831 112.898 92.7831 111.888 92.7831 110.848" stroke="black" stroke-width="2" stroke-linecap="round" stroke-linejoin="round"/>
<path d="M33.8879 172.94C33.6161 173.092 32.8881 173.395 32.203 173.684C31.3414 174.048 30.7279 174.398 30.2412 174.839C29.3716 175.626 28.9947 176.222 28.1746 176.981C27.5069 177.599 26.8673 178.228 26.2881 178.61C25.5554 179.094 24.7382 179.598 24.0235 180.039C23.1611 180.571 22.215 181.057 21.5901 181.559C21.1254 181.932 20.4817 182.183 19.8117 182.26C18.5746 182.402 17.0444 182.396 16.4519 182.851C15.8956 183.277 15.4918 183.643 15.4006 183.976C15.1262 184.977 15.1871 185.739 15.3385 187.222C15.5713 189.502 15.3394 191.123 15.2938 191.621C15.1257 193.459 14.9445 194.071 14.4897 194.558C14.0189 195.063 13.4867 195.562 12.9544 195.927C12.2248 196.428 11.3594 196.657 10.7194 196.84C10.1163 197.014 8.60077 197.114 7.4509 196.857C6.8059 196.713 6.37127 196.324 5.79337 196.339C5.14331 196.355 4.94089 197.173 4.80314 197.66C4.66186 198.16 4.69641 199.025 4.43916 199.818C4.22728 200.472 3.69477 201.095 3.31437 201.537C2.83135 202.098 2.44866 202.495 1.99163 202.875C1.78142 203.05 1.77726 203.377 1.83747 203.74C1.99767 204.708 2.50705 205.17 2.61287 205.733C2.76486 206.542 2.84092 207.207 2.81173 208.24C2.78853 209.06 2.32642 209.61 2.14261 210.081C1.90937 210.679 1.80827 211.433 1.62583 212.057C1.49417 212.508 1.68512 212.925 1.89722 213.138C2.32094 213.563 2.93032 213.564 3.32669 213.989C3.74703 214.44 3.78417 215.233 3.93561 215.874C4.15425 216.798 4.24029 217.788 4.33106 218.443C4.39585 218.911 4.42274 220.545 4.37758 222.748C4.34285 224.443 3.90641 225.087 3.6332 225.499C3.34305 225.936 3.35907 226.607 3.34311 228.488C3.33606 229.318 3.47949 229.922 3.84347 230.727C4.14124 231.386 4.51214 232.17 4.93815 233.008C5.21654 233.556 5.66703 234.027 6.21437 234.378C6.37283 234.48 6.63764 234.425 6.82191 234.365C7.46493 234.155 7.79618 233.545 8.19163 233.164C8.6391 232.733 9.67721 232.754 10.6971 232.48C12.6507 231.957 13.1163 231.537 13.7248 231.309C14.6419 230.966 15.2747 230.869 15.9297 230.761C16.6724 230.638 18.0059 230.593 18.925 230.684C19.6018 230.751 20.2628 230.867 20.8858 230.988C21.779 231.161 22.6619 231.564 23.5158 231.809C24.3695 232.054 24.8842 232.507 25.6586 233.039C26.9945 233.955 28.0715 234.662 28.7174 235.32C29.1176 235.728 29.6278 236.065 30.2358 236.551C31.5112 237.57 32.0306 237.95 32.5027 238.346C33.0422 238.799 33.9153 239.318 34.4941 239.745C35.0319 240.141 36.2196 241.077 37.5181 241.873C38.1211 242.242 38.8103 242.724 39.5105 243.241C40.5586 244.014 41.4558 244.518 42.1108 244.869C42.9619 245.324 43.7674 245.826 44.3302 246.236C45.3055 246.948 45.8053 247.074 46.3075 247.286C46.8594 247.52 47.2649 247.864 47.8278 248.259C48.3563 248.63 48.9069 249.05 49.4698 249.293C49.7316 249.407 50.0928 249.477 50.5029 249.417C50.6806 249.39 50.7624 249.236 50.8089 249.099C51.0105 248.504 51.0671 247.687 51.2956 247.001C51.5185 246.332 51.6455 245.769 51.7066 244.904C51.7539 244.233 51.9191 243.58 52.3433 241.564C52.7128 239.809 53.6195 238.931 54.243 238.001C54.6954 237.326 55.2935 236.92 55.6119 236.662C55.9123 236.418 56.327 236.402 57.4135 236.326C59.941 236.15 61.8305 236.128 62.3756 236.037C63.779 235.804 64.5645 235.613 65.5835 235.474C67.0816 235.271 68.27 234.551 69.3861 233.956C70.2769 233.48 71.4355 232.391 72.3358 231.675C72.8166 231.294 73.2636 230.96 73.9017 230.429C74.8698 229.623 75.3909 228.743 76.4851 227.587C77.0959 226.942 77.5821 226.764 78.2804 226.308C78.9945 225.841 79.7094 225.456 80.3184 225.016C80.9561 224.555 81.4427 223.998 82.4302 222.905C83.5041 221.716 84.7285 220.501 85.3507 219.862C85.7875 219.414 86.0659 218.798 86.4162 218.204C86.8358 217.493 87.0693 215.854 87.359 214.936C87.6367 214.057 87.9524 213.599 88.3164 212.778C88.56 212.228 88.7424 211.743 88.9102 211.104C89.0656 210.513 89.1693 209.015 88.8213 208.063C88.6025 207.465 88.0454 207.091 87.5597 206.679C87.0745 206.268 86.5275 205.481 86.0691 204.734C85.7883 204.276 85.5222 203.746 85.2932 203.183C84.9576 202.357 84.7304 201.528 84.5484 200.691C84.2678 199.401 83.5755 198.698 83.4076 198.211C83.2366 197.715 82.7855 197.089 82.2536 196.024C81.7873 195.09 81.5686 194.533 81.1435 194.03C80.697 193.501 79.8973 193.285 79.4257 192.92C78.6842 192.345 77.7992 192.705 77.1159 192.796C75.8695 192.962 75.0351 193.858 73.6508 194.755C73.2511 195.013 73.0848 195.259 72.8421 195.365C72.6092 195.467 72.2948 195.442 71.976 195.352C71.443 195.2 70.9283 194.653 70.2126 194.046C69.6544 193.572 69.0126 193.376 68.312 193.102C67.6788 192.853 66.9746 192.433 66.4565 192.265C65.8924 192.082 65.1812 191.915 64.4655 191.824C63.6024 191.714 62.5047 191.793 61.8351 191.899C61.1959 192.001 60.2861 192.369 59.6458 192.674C58.8581 193.048 57.0441 193.101 55.2839 192.495C54.4373 192.204 53.7783 191.34 53.0024 190.731C52.1237 190.041 51.2842 190.09 50.5544 189.894C49.7213 189.669 49.0657 189.574 47.6526 189.498C46.9353 189.459 46.5096 188.906 45.9317 188.45C45.3224 187.969 44.8676 187.447 44.1993 186.689C42.9919 185.319 42.4957 184.256 42.0994 183.767C41.7043 183.28 41.4321 182.433 41.0654 181.67C40.5071 180.508 39.6988 179.056 39.0448 178.234C38.3659 177.382 37.8123 177.138 37.3713 176.697C36.9751 176.301 36.4148 175.952 35.9573 175.572C35.3035 175.028 34.6505 174.462 34.1634 174.128C33.7064 173.762 33.2822 173.519 32.8101 173.14C32.7029 173.032 32.6126 172.942 32.4283 172.849" stroke="black" stroke-width="2" stroke-linecap="round" stroke-linejoin="round"/>
<path d="M6.86068 234.18C6.53173 234.253 5.72371 234.619 5.17012 235.08C4.53706 235.606 4.03039 236.273 3.2759 237.139C2.70113 237.799 2.33707 238.445 1.89498 238.998C1.28749 239.757 1.34139 240.834 1.13994 241.684C0.957424 242.453 0.899846 245.159 1.30276 247.128C1.47889 247.989 2.58875 248.455 3.38077 248.878C4.09454 249.259 4.57569 250.073 5.2943 250.937C5.92015 251.688 6.23369 252.244 6.58306 252.906C7.21151 254.097 7.81662 255.003 8.22063 256.271C8.54298 257.282 8.66218 258.204 8.8835 259.014C9.1113 259.846 9.25164 260.412 9.69208 261.368C10.003 262.043 10.3908 262.547 10.8511 262.971C11.3581 263.438 11.9362 264.017 12.2685 264.754C12.5754 265.435 12.8922 266.26 13.3536 266.962C13.713 267.509 14.1439 268.175 14.8427 269.352C15.3677 270.236 15.5061 270.899 16.0023 271.672C16.4114 272.309 16.7932 272.886 17.5466 273.439C18.2007 273.919 18.9634 273.881 19.6627 274.139C20.5579 274.468 21.5376 275.169 22.2937 275.665C22.9046 276.066 23.6327 277.114 24.4639 277.945C25.7355 279.216 26.2488 279.803 27.223 280.887C28.2308 282.009 28.971 282.931 29.6162 283.667C30.1518 284.278 30.885 284.697 31.6577 284.993C32.3366 285.254 32.9448 285.509 34.7436 285.876C36.34 286.201 36.9563 286.134 37.9293 286.263C39.629 286.489 40.5239 286.393 41.2983 286.594C41.9949 286.775 43.2416 287.49 44.1689 287.919C45.0287 288.317 46.4119 288.6 47.1305 288.71C47.7417 288.804 48.326 288.967 48.9155 289.133C49.68 289.348 50.1275 290.362 50.7738 290.953C51.3477 291.478 51.748 292.02 52.2276 292.48C52.7822 293.013 53.4037 293.565 54.2681 293.989C54.9795 294.338 55.5739 295.184 56.0729 295.773C56.5042 296.283 56.68 297.023 56.9013 297.796C57.219 298.906 57.6382 299.82 57.8578 300.537C58.112 301.368 58.4086 302.028 58.9054 302.781C59.8528 304.218 60.2852 305.191 60.7091 305.727C61.1558 306.291 62.047 307.359 62.8423 308.008C63.4236 308.483 64.1112 308.615 64.7553 309.313C65.5453 310.169 66.246 310.786 66.8714 311.814C67.3554 312.61 67.9018 313.177 68.4902 313.711C69.2743 314.423 70.0345 314.76 71.1008 315.147C72.0795 315.503 72.7213 315.497 73.3107 315.9C74.0205 316.386 74.5603 316.894 75.1691 317.226C75.8458 317.594 76.1079 318.548 76.2012 319.926C76.2748 321.014 76.1476 322.118 75.8347 322.927C75.66 323.379 75.5206 324.03 75.5571 324.765C75.5948 325.526 76.2183 325.981 76.7145 326.461C77.1598 326.891 77.799 327.123 78.5165 327.528C79.225 327.929 80.9892 327.787 82.1234 327.348C82.8169 327.079 83.2079 326.282 83.889 325.93C84.4823 325.624 85.0845 325.213 85.5641 324.808C86.042 324.405 86.5195 324.145 87.2 323.87C88.1777 323.475 89.2747 323.922 90.1992 324.345C91.0167 324.72 91.7076 325.467 92.4433 326.33C93.2637 327.293 94.0986 327.931 95.1097 328.393C95.3994 328.526 95.7875 328.45 96.0662 328.359C97.0322 328.043 97.0084 326.688 97.1375 325.768C97.3991 323.906 97.2667 321.261 97.175 319.548C97.1118 318.366 96.8251 317.195 96.6236 316.145C96.4709 315.35 96.3836 313.525 96.6032 312.152C96.7179 311.435 97.2644 310.755 97.5967 310.128C98.2031 308.984 100.499 307.739 101.382 306.821C101.733 306.455 101.682 306.121 101.609 305.843C101.35 304.854 100.545 304.498 99.9181 303.964C99.3699 303.498 98.9246 303.063 98.2811 302.548C97.726 302.103 97.0856 301.811 95.5623 300.839C94.1513 299.938 92.966 299.42 90.6523 298.557C89.6155 298.169 88.8067 297.873 88.199 297.671C87.524 297.447 87.0394 297.284 86.7088 297.156C85.7449 296.783 85.972 294.749 85.7871 293.684C85.4582 291.789 85.1286 290.45 84.5739 289.394C84.2286 288.736 83.8393 287.141 83.6528 285.771C83.5049 284.684 83.2477 280.975 83.3757 279.018C83.4502 277.879 83.7974 277.087 84.3493 276.387C84.8514 275.75 85.6364 275.356 86.3909 274.896C87.0177 274.513 87.4379 273.301 88.1377 272.231C89.5584 270.06 90.054 269.323 90.0552 268.129C90.0561 267.09 89.8333 266.161 90.2737 264.67C90.5434 263.758 90.6435 262.593 90.7351 261.596C90.7927 260.969 90.8643 258.997 91.1573 257.511C91.286 256.859 91.818 256.37 92.5173 255.286C93.0198 254.508 93.6217 254.052 94.1372 253.683C94.7273 253.261 94.8006 252.25 95.113 250.929C95.7667 248.166 94.5092 247.429 94.0859 246.822C93.3854 245.818 92.5598 245.223 91.8235 244.559C91.2921 244.079 90.904 243.09 90.2594 242.223C89.7424 241.527 89.6147 240.697 89.357 239.978C88.9513 238.846 88.4733 237.973 88.0329 236.688C87.6957 235.703 87.3717 234.812 86.3423 233.358C85.5888 232.293 85.3097 231.387 84.9415 230.742C84.5804 230.109 84.3162 229.473 83.7284 228.884C83.1194 228.273 82.6604 227.486 82.0544 227.025C81.5226 226.62 79.8389 226.674 78.761 227.04C77.7908 227.369 77.2912 228.252 76.5903 228.77C75.8829 229.291 75.2668 229.908 74.6033 230.37C73.7481 230.966 71.8558 232.22 70.5743 233.258C69.9943 233.728 69.4163 234.032 68.4598 234.582C67.5443 235.109 66.7671 235.246 66.0302 235.412C65.1619 235.607 64.0096 236.054 61.346 236.185C60.2869 236.237 59.4087 236.35 58.6344 236.406C57.8812 236.46 57.0906 236.719 56.4079 236.957C55.5837 237.244 55.1015 238.114 54.6776 238.868C54.169 239.773 53.6687 241.088 53.242 242.143C52.914 242.955 53.0395 243.817 52.8005 244.663C52.5577 245.523 52.5251 246.356 52.1387 247.624C52.0058 248.06 51.7524 248.454 51.4405 248.895C51.1769 249.268 50.6496 249.303 50.1904 249.267C49.4975 249.212 48.9574 248.716 48.4596 248.293C47.8039 247.736 47.0808 247.135 46.583 246.674C46.0032 246.136 45.1314 245.479 41.9391 243.992C40.7248 243.426 40.1265 242.792 39.409 242.35C38.5354 241.812 37.6627 241.137 36.6505 240.31C35.734 239.561 34.9759 239.114 34.2391 238.432C33.675 237.91 32.9161 237.531 32.032 237.052C31.1763 236.588 30.2316 235.986 29.4556 235.58C28.6658 235.166 28.0216 234.699 27.3218 234.237C26.3491 233.595 25.7389 233.189 25.1323 232.802C24.1606 232.182 23.5687 231.568 22.9428 231.256C22.1004 230.836 20.9216 230.612 19.9265 230.519C17.8478 230.324 14.4442 230.573 13.7808 230.794C12.9951 231.056 12.3469 231.162 11.7016 231.603C10.9535 232.113 9.9559 232.632 9.29138 232.983C8.70192 233.406 8.26037 233.701 7.94853 233.866C7.7824 233.958 7.60027 234.068 7.30223 234.29" stroke="black" stroke-width="2" stroke-linecap="round" stroke-linejoin="round"/>
<path d="M146.596 189.72C146.92 189.579 148.043 189.95 148.98 190.56C149.885 191.149 150.619 191.824 151.998 192.62C153.307 193.375 155.248 193.698 156.728 193.84C158.398 194 160.817 193.889 162.417 193.514C163.671 193.22 165.132 192.717 166.373 192.297C167.606 191.879 169.065 192.015 170.307 192.013C171.427 192.012 172.481 193.133 173.911 193.791C175.6 194.569 177.071 194.869 178.756 195.15C179.826 195.329 181.513 195.524 184.232 195.666C185.431 195.728 186.528 195.993 187.818 196.087C188.284 196.121 188.733 196.6 189.224 197.114C189.603 197.511 189.719 198.236 189.673 199.101C189.615 200.177 188.831 201.047 188.107 201.541C187.128 202.208 186.306 202.547 185.671 203.085C184.849 203.781 184.71 205.261 183.917 206.849C182.856 208.973 182.651 209.849 182.392 210.646C181.971 211.945 181.712 213.829 181.526 214.835C181.208 216.556 181.058 217.948 180.777 219.305C180.443 220.917 180.403 221.695 180.122 222.446C179.779 223.358 177.886 224.454 176.775 225.232C176.079 225.72 175.068 225.679 174.131 225.796C172.257 226.029 170.666 226.522 169.706 227.36C168.494 228.419 167.531 231.051 166.988 232.301C166.492 233.444 165.376 234.759 164.811 235.532C164.487 235.976 164.109 236.4 163.735 236.75C163.384 237.08 162.846 237.197 162.216 237.174C160.938 237.127 159.757 236.402 158.493 235.679C157.494 235.107 156.853 234.391 155.428 233.176C154.272 232.191 153.903 231.067 153.2 230.457C152.848 230.151 152.404 229.987 151.96 229.94C151.142 229.853 150.346 230.874 149.432 232.112C148.858 232.889 148.051 233.495 147.441 234.361C146.911 235.113 145.947 236.206 144.447 238.967C143.701 240.339 143.646 242.338 143.483 243.748C143.288 245.437 143.039 248.238 142.99 251.256C142.958 253.233 143.505 254.517 144.112 256.644C144.469 257.896 145.141 259.102 145.588 260.347C145.902 261.222 146.031 262.473 146.105 267.332C146.139 269.585 145.242 270.297 145.12 271.49C145.028 272.391 146.127 272.966 146.151 274.066C146.173 275.033 145.848 276.149 145.567 277.063C145.295 277.945 144.68 279.096 144.116 280.387C143.589 281.592 143.368 284.009 143.178 285.396C142.964 286.966 143.036 288.65 143.107 289.634C143.151 290.243 143.317 290.76 143.435 291.157C143.56 291.582 143.18 292.117 142.806 292.608C142.246 293.344 141.216 293.244 140.418 293.43C139.989 293.53 139.436 294.084 138.688 294.482C138.378 294.647 138.126 294.556 137.937 294.462C137.076 294.037 136.811 292.779 136.578 292.217C135.785 290.309 130.917 291.606 128.462 291.488C126.939 291.416 126.045 290.016 125.132 289.453C123.897 288.693 122.863 288.423 121.855 288.281C120.282 288.059 118.887 288.417 117.245 289.446C114.742 291.014 113.547 292.159 112.629 293.217C112.01 293.93 111.715 294.738 110.827 295.791C109.942 296.841 109.423 297.595 108.649 298.158C107.845 298.743 106.804 299.188 105.374 299.33C103.732 299.493 102.821 300.031 101.977 300.336C100.93 300.714 100.433 302.601 99.6827 303.192C99.375 303.434 98.7008 303.357 97.9529 303.241C96.7053 303.048 96.171 301.955 95.376 301.277C94.0772 300.168 93.4095 299.612 92.1003 298.656C90.8679 297.755 90.0383 297.413 89.2882 296.804C88.6312 296.272 87.9313 295.867 87.0878 295.329C86.3175 294.838 85.7316 293.348 85.143 291.774C84.5893 290.294 84.7904 287.507 84.6738 285.685C84.6213 284.863 84.2314 283.189 83.8317 281.869C83.5663 280.993 83.5262 280.045 83.4328 279.13C83.2954 277.783 84.2258 276.393 84.881 275.385C85.7207 274.092 86.6137 273.441 87.3392 272.761C88.0758 272.072 88.7207 271.522 89.5164 270.632C90.1885 269.88 90.1731 268.252 90.315 266.258C90.4966 263.705 90.6423 261.175 90.7132 259.282C90.7659 257.874 91.53 256.773 92.0926 255.44C92.5662 254.318 93.2634 253.076 93.6152 252.23C93.9538 251.416 94.2466 250.266 94.3885 248.838C94.4832 247.885 94.8563 246.895 94.8345 245.35C94.8204 244.352 93.7382 243.709 93.0337 243.076C92.2547 242.375 91.6761 241.743 90.7413 240.737C89.2539 239.137 88.819 237.532 88.4208 236.522C87.7474 234.816 87.4144 233.174 86.8995 232.098C86.5004 231.263 85.7793 229.994 84.5839 228.634C83.6809 227.606 83.1554 226.668 82.5914 225.356C82.3979 224.906 82.4025 224.14 82.472 223.204C82.5541 222.1 83.8044 221.516 84.3901 220.905C85.0967 220.169 86.3299 219.456 87.1524 218.635C88.0572 217.732 88.8134 216.181 89.6105 214.588C90.0758 213.658 90.1282 212.574 90.2679 211.776C90.4013 211.014 90.6423 210.186 90.9696 209.365C91.1476 208.918 91.391 208.497 91.8334 208.216C93.1634 207.372 97.4914 207.98 100.284 207.817C101.198 207.764 101.877 206.907 103.345 206.576C107.715 205.592 108.852 206.857 109.673 206.996C110.12 207.072 110.633 207.184 111.171 207.231C112.08 207.311 112.693 206.39 113.326 205.783C114.246 204.901 114.659 203.865 115.246 203.067C115.787 202.332 116.252 200.873 117.374 197.296C117.923 195.55 117.939 194.265 118.219 193.634C119.096 191.658 124.163 193.184 125.217 193.278C126.383 193.382 128.417 193.698 129.83 193.91C130.815 194.058 132.215 194.448 133.458 194.635C134.66 194.817 138.376 195.057 140.806 195.174C143.174 195.288 144.017 194.917 145.117 194.241C146.112 193.63 146.127 192.299 146.57 191.432C147.016 190.658 147.437 190.142 147.694 189.816C147.812 189.628 147.905 189.397 148 189.158" stroke="black" stroke-width="2" stroke-linecap="round" stroke-linejoin="round"/>
<path d="M91.6733 110.286C92.1382 110.286 93.1679 110.1 94.3611 109.469C95.5076 108.862 96.8649 107.62 97.804 107.174C98.521 106.833 99.2079 106.263 100.098 105.629C101.306 104.769 102.765 103.409 103.96 102.54C105.064 101.738 105.577 100.456 105.883 99.7072C106.334 98.604 106.748 97.3685 107.1 95.777C107.387 94.4781 107.498 93.2472 107.569 92.3096C107.644 91.3214 107.872 90.2974 108.177 89.4763C108.537 88.505 109.555 88.0022 110.399 87.5316C111.411 86.9675 113.109 87.8055 114.705 88.6279C115.753 89.1679 116.626 90.1513 117.539 90.4322C118.556 90.7451 119.528 89.4546 120.232 88.6567C120.959 87.8332 121.823 87.4852 122.69 87.2731C123.494 87.0762 124.351 87.8561 125.102 88.3245C126.182 88.9994 128.608 88.1426 129.596 87.5091C130.586 86.8752 131.467 85.662 132.591 84.2131C134.704 81.4859 136.572 80.5097 137.788 79.8776C139.312 79.085 140.084 78.5881 140.973 78.3774C142.595 77.9929 144.199 77.9785 145.421 77.7453C146.539 77.532 148.135 76.998 149.564 76.6918C150.551 76.4802 151.462 76.1074 152.468 75.7324C153.42 75.3776 154.364 75.1242 155.511 74.4928C156.351 74.0307 157.08 73.6268 157.946 73.0179C159.239 72.1088 160.123 71.5198 161.41 70.7472C162.43 70.1354 165.581 70.1123 167.382 70.5084C168.212 70.691 168.972 71.1883 169.933 71.3758C171.113 71.6061 172.436 71.6097 173.957 72.0999C175.465 72.586 176.231 73.3402 176.84 74.1585C177.854 75.5199 177.779 78.6583 178.152 80.6199C178.342 81.6179 179.133 82.7009 179.767 83.8043C180.265 84.6711 181.381 84.999 182.621 85.1654C183.856 85.3313 185.359 85.19 186.344 85.0257C187.226 84.8786 188.076 84.5832 189.293 84.2538C189.963 84.0725 190.698 83.8781 191.423 83.9244C192.387 83.986 192.947 84.999 193.486 85.7013C194.018 86.3931 194.585 87.5695 195.172 89.2333C195.714 90.7694 196.178 92.8623 196.647 94.0331C197.375 95.8512 197.397 96.9358 197.911 99.6918C198.386 102.236 198.147 103.305 198.03 104.357C197.785 106.571 197.588 108.263 197.468 110.116C197.372 111.591 198.234 114.764 198.638 116.671C199.002 118.39 199.13 119.784 199.503 120.911C199.779 121.743 200.018 122.874 200.463 124.559C200.956 126.424 200.675 127.695 200.792 129.032C200.961 130.973 200.956 133.21 201.236 135.235C201.585 137.769 201.892 139.357 202.359 140.202C202.837 141.067 203.249 142.166 203.787 143.385C204.395 144.762 205.448 146.147 206.128 147.155C206.886 148.28 208.258 149.844 209.799 151.507C210.598 152.369 211.441 152.797 212.237 153.36C213.378 154.167 214.343 154.718 215.257 155.187C216.057 155.596 217.152 155.701 217.973 155.914C218.905 156.154 220.61 156.078 222.208 155.845C223.605 155.641 225.569 155.656 227.056 155.54C227.837 155.479 228.763 155.142 233.712 155.141C235.439 155.14 236.256 155.701 237.077 155.983C238.323 156.411 239.675 157.106 240.751 157.528C242.214 158.101 243.464 158.792 245.476 159.958C247.822 161.319 249.502 162.534 252.031 164.195C253.104 164.9 253.443 165.72 254.05 166.493C254.722 167.349 255.266 168.2 256.436 169.464C257.11 170.192 257.699 171.243 258.522 172.765C258.959 173.574 259.295 174.381 259.414 175.202C259.565 176.25 259.345 177.378 259.041 178.268C258.86 178.794 258.362 179.252 257.965 179.72C257.625 180.121 255.661 180.098 253.087 180.121C250.503 180.144 247.782 180.145 246.846 180.075C245.666 179.985 244.647 179.539 243.591 178.836C243.164 178.552 242.911 178.179 242.537 178.038C241.792 177.758 240.343 178.595 238.374 179.369C237.23 179.819 235.986 180.424 233.437 181.125C232.16 181.477 230.558 181.502 227.663 181.736C223.176 182.097 220.015 181.737 219.595 181.597C218.557 181.252 218.003 180.474 216.066 179.796C213.954 179.056 213.087 179.629 211.754 180.072C210.823 180.382 209.07 180.519 206.747 180.822C204.006 181.179 201.01 181.5 199.954 181.712C198.166 182.073 197.213 182.486 196.815 182.578C196.024 182.763 195.621 183.84 195.083 184.775C194.061 186.549 193.607 187.677 192.953 188.802C192.309 189.909 191.877 191.234 191.639 192.175C191.542 192.562 191.358 192.925 191.172 193.322C190.616 194.508 188.975 194.658 187.384 194.729C186.96 194.748 186.589 194.799 184.915 194.823C183.241 194.847 180.274 194.847 178.537 194.8C175.704 194.725 174.88 194.192 174.107 193.888C172.938 193.428 171.416 192.65 170.595 191.969C169.864 191.363 166.615 191.616 164.602 191.756C163.13 191.858 160.974 191.804 159.012 191.687C157.517 191.598 156.339 191.242 155.402 191.171C154.09 191.072 152.875 190.869 151.798 190.704C150.073 190.439 148.989 190.071 147.911 189.862C146.347 189.558 145.289 189.043 143.398 188.574C140.443 187.842 139.249 187.964 138.428 187.801C137.484 187.613 136.673 187.217 135.457 186.375C134.661 185.825 133.678 185.438 132.903 184.899C132.068 184.318 131.428 183.708 130.749 183.097C129.803 182.246 129.228 181.084 127.756 179.682C126.822 178.793 124.422 177.024 122.883 175.979C122.116 175.457 120.803 174.811 119.609 173.945C117.491 172.41 116.586 171.908 115.744 171.111C114.704 170.127 113.314 169.15 112.558 168.184C112.016 167.491 111.156 166.666 110.498 165.307C110.021 164.322 109.56 163.433 109.489 162.333C109.418 161.229 109.279 159.921 108.882 158.192C108.595 156.945 108.251 155.803 107.899 154.818C107.364 153.325 106.799 152.617 106.144 151.75C105.514 150.915 104.602 150.229 103.873 149.525C103.279 148.951 102.633 148.496 101.953 147.91C101.25 147.303 100.295 146.299 99.5886 145.313C98.7025 144.076 98.4635 143.113 98.0659 142.059C97.6917 141.066 97.7611 139.789 97.457 138.897C97.1027 137.858 96.9661 136.699 96.6613 135.738C96.2074 134.306 95.6092 133.421 95.093 132.506C94.6374 131.699 94.3899 130.426 94.319 128.227C94.2406 125.797 94.109 122.416 94.0381 119.568C94.0062 118.29 93.8281 117.267 93.6405 116.469C93.4241 115.548 93.4067 114.224 93.3357 113.029C93.309 112.579 93.2184 112.022 93.288 111.367C93.3897 110.41 94.6652 109.822 95.3233 109.164C95.4645 109.023 95.6036 108.884 95.7447 108.72C95.8859 108.555 96.025 108.37 96.3087 107.898" stroke="black" stroke-width="2" stroke-linecap="round" stroke-linejoin="round"/>
<path d="M259.272 179.47C259.272 180.09 259.384 181.22 259.414 184.187C259.429 185.71 258.99 186.715 258.481 187.932C258.04 188.987 257.97 189.943 257.744 190.906C257.453 192.14 257.403 193.956 257.262 195.773C257.012 198.996 257.855 200.817 258.392 202.091C258.978 203.48 259.156 204.779 259.3 207.071C259.374 208.253 259.612 210.152 259.246 212.002C259.024 213.122 257.692 213.842 256.896 214.948C256.193 215.925 255.65 216.958 255.59 220.686C255.566 222.223 256.55 223.299 256.977 224.406C257.502 225.769 257.909 226.867 258.449 228.51C258.89 229.853 259.102 231.282 259.243 233.853C259.602 240.398 258.82 241.537 258.593 242.502C258.367 243.466 258.14 244.483 258.055 247.393C258.027 248.337 257.913 248.959 257.857 249.609C257.804 250.224 257.573 253.799 257.601 258.924C257.615 261.488 258.195 262.606 258.394 263.712C258.563 264.653 259.156 265.552 260.089 268.123C260.772 270.004 261.195 271.101 261.959 272.461C262.485 273.397 263.176 274.105 264.844 277.661C265.888 279.887 265.728 281.126 265.926 282.429C266.118 283.702 266.462 284.806 266.606 285.829C266.734 286.738 266.86 287.752 266.806 289.112C266.783 289.677 265.958 289.908 265.421 290.191C264.081 290.897 261.657 290.083 260.494 289.741C260.02 289.601 259.557 289.626 259.077 289.823C257.772 290.359 256.394 291.718 255.142 292.766C253.92 293.789 252.54 294.888 251.263 295.515C250.125 296.073 248.578 295.969 245.409 296.083C243.762 296.142 240.438 296.366 236.447 296.394C234.64 296.407 234.071 296.592 233.647 296.845C232.546 297.503 232.43 298.966 231.665 299.903C230.823 300.936 228.029 300.784 226.031 301.235C224.364 301.611 221.841 301.127 220.735 300.306C219.799 299.61 219.065 298.636 218.215 297.279C216.929 295.226 216.119 293.767 215.072 292.689C213.992 291.576 212.048 291.103 209.64 290.224C206.847 289.205 204.171 290.702 203.093 291.125C201.735 291.659 200.035 292.458 199.213 292.966C198.132 293.632 197.035 293.702 195.677 293.959C192.611 294.538 191.088 293.366 189.559 292.857C188.518 292.51 187.744 291.782 186.923 290.792C186.178 289.894 185.366 289.234 184.263 288.553C182.895 287.709 181.743 287.647 180.327 287.39C178.711 287.097 176.646 287.925 175.344 288.407C173.349 289.145 172.059 289.342 170.924 289.935C169.628 290.613 168.321 291.266 167.214 292.059C165.94 292.973 163.903 293.59 162.882 293.958C160.908 294.669 157.956 294.27 152.337 294.271C150.204 294.272 148.781 293.366 147.816 292.942C146.793 292.493 146.229 291.276 145.748 290.253C145.252 289.201 144.53 288.048 144.189 286.856C143.825 285.58 143.623 284.14 143.733 281.482C143.837 278.983 145.091 278.135 145.546 276.86C145.747 276.298 145.66 275.753 145.745 274.04C145.955 269.808 145.83 266.748 145.999 265.932C146.317 264.394 146.453 261.218 146.425 257.764C146.409 255.695 146.002 254.576 145.916 253.525C145.814 252.273 145.152 251.062 144.671 247.032C144.115 242.368 144.641 239.111 144.726 238.405C144.905 236.91 144.924 235.546 145.403 234.664C145.992 233.581 146.96 232.484 147.781 231.804C148.637 231.096 150.015 230.333 152.758 230.158C154.206 230.066 155.17 231.118 156.163 231.911C157.471 232.955 158.004 234.119 158.825 235.139C159.492 235.968 160.495 236.555 161.289 237.152C162.113 237.77 163.998 237.408 165.282 236.986C166.427 236.609 166.441 234.248 167.18 232.317C167.574 231.286 168.48 230.503 169.415 229.428C170.981 227.625 172.048 227.217 173.097 226.706C174.011 226.26 175.161 225.858 176.607 225.206C177.733 224.698 178.675 223.649 179.554 222.377C180.372 221.193 180.999 219.687 181.284 218.694C181.61 217.556 181.624 215.953 181.821 214.645C182.002 213.448 182.586 212.493 182.841 211.558C183.186 210.293 183.266 208.813 183.351 207.848C183.439 206.868 184 205.867 184.68 204.903C185.528 203.703 186.039 202.581 186.578 201.731C187.177 200.788 187.907 199.92 188.447 199.013C188.986 198.105 189.437 196.865 189.948 195.502C190.308 194.544 190.514 193.633 190.826 192.642C191.263 191.257 191.591 190.123 191.959 189.017C192.421 187.626 193.345 185.706 193.884 184.769C194.384 183.9 195.496 183.269 196.262 182.531C197.062 181.76 198.156 181.285 199.262 181.028C200.178 180.816 201.215 180.829 203.919 180.688C209.186 180.414 213.11 180.547 213.845 180.349C215.075 180.018 217.682 179.98 219.763 180.543C221.675 181.061 222.511 181.849 223.953 182.018C225.735 182.227 227.098 182.301 228.622 182.499C232.895 183.057 234.404 182.246 235.34 181.85C236.508 181.356 237.745 180.663 238.71 180.179C239.585 179.741 240.745 179.134 242.332 178.509C243.461 178.065 244.769 178.393 245.732 178.817C247.461 179.578 249.526 180.092 253.987 180.178C256.207 180.32 257.909 180.151 258.587 179.784C258.929 179.586 259.265 179.361 259.782 178.96" stroke="black" stroke-width="2" stroke-linecap="round" stroke-linejoin="round"/>
<path d="M260.083 178.746C260.083 181.233 259.987 185.783 259.746 186.674C259.37 188.068 259.024 189.012 258.71 189.954C258.297 191.194 257.962 192.099 257.793 192.968C257.589 194.013 257.528 194.992 257.526 196.486C257.525 197.788 258.057 198.896 258.321 199.889C258.632 201.057 258.876 202.611 259.213 203.602C259.506 204.463 259.84 205.409 259.986 206.975C260.124 208.459 260.323 210.087 260.324 212.085C260.325 213.273 259.507 214.089 258.904 214.911C258.307 215.724 257.482 216.164 256.806 216.696C256.481 216.952 256.275 217.419 255.962 217.828C255.203 218.818 255.934 220.504 256.2 221.42C256.468 222.344 256.995 223.059 257.477 223.976C258.151 225.262 258.393 226.291 258.755 227.063C259.231 228.077 259.021 229.618 259.31 231.512C260.284 237.889 259.215 238.732 259.095 239.767C258.852 241.856 258.925 243.689 258.781 245.002C258.685 245.886 258.396 246.929 258.323 248.111C258.27 248.965 258.107 249.823 258.034 251.245C257.987 252.155 257.673 253.006 257.6 254.332C257.537 255.471 257.383 256.527 257.358 259.725C257.346 261.168 257.719 262.12 257.912 262.966C258.126 263.902 258.489 264.964 259.044 266.147C259.641 267.418 259.793 268.63 260.201 270.076C260.492 271.108 261.237 271.622 261.744 272.345C262.362 273.226 262.782 273.887 263.431 275.26C264.202 276.891 264.614 278.034 264.856 278.976C265.072 279.815 265.337 280.783 265.58 281.772C265.913 283.135 266.254 284.593 266.448 285.486C266.621 286.287 266.833 287.148 267.026 288.114C267.123 288.595 267.363 289.079 267.747 289.465C268.343 290.062 269.53 289.373 271.192 289.322C272.318 289.288 273.196 290.716 273.968 291.419C274.295 291.716 275.743 291.734 277.767 291.519C279.999 291.282 280.476 289.281 281.227 288.433C281.543 288.076 282.165 287.591 282.887 286.94C283.444 286.439 284.668 286.381 286.042 286.477C287.441 286.574 288.146 288.641 289.134 289.777C290.035 290.815 291.954 290.383 292.872 290.289C293.926 290.181 293.788 288.603 294.392 287.975C295.027 287.313 296.1 287.154 301.244 286.818C304.522 286.603 305.455 285.612 306.446 285.393C307.032 285.264 307.725 285.56 308.303 285.921C309.158 286.455 309.558 288.109 310.161 289.151C310.725 290.126 312.014 290.525 313.005 290.985C313.744 291.329 314.667 291.251 316.594 291.276C317.917 291.294 319.63 290.389 320.841 289.999C321.734 289.711 323.961 289.709 326.215 289.781C327.856 289.834 328.7 289.228 329.715 288.53C330.552 287.954 330.584 286.867 331.258 285.544C331.902 284.281 331.888 283.057 331.96 281.907C332.104 279.615 331.937 277.944 331.864 276.199C331.679 271.736 331.792 268.397 331.72 267.461C331.487 264.453 331.406 261.275 331.118 259.26C330.97 258.223 330.587 257.404 330.25 256.582C329.913 255.761 329.528 254.227 329.26 253.11C329.068 252.309 328.996 251.423 328.587 250.554C328.071 249.458 326.924 248.77 326.344 248.046C325.703 247.246 324.708 246.409 323.886 245.491C322.849 244.334 322.633 242.936 321.837 241.971C321.065 241.035 320.127 240.428 319.28 239.799C318.336 239.099 317.52 237.775 316.917 237.147C316.147 236.347 315.495 235.463 315.059 234.352C314.471 232.851 314.19 230.304 313.71 228.16C313.321 226.426 313.322 225.145 313.202 223.888C313.045 222.251 313.033 221.38 312.889 220.198C312.778 219.29 312.599 217.96 312.455 216.918C312.26 215.508 311.395 213.713 310.985 212.891C310.517 211.955 309.181 210.918 308.405 210.022C307.747 209.261 306.719 208.455 305.779 207.635C304.71 206.703 304.115 205.851 303.51 204.647C302.944 203.519 302.955 202.573 302.618 201.728C302.266 200.845 301.415 200.305 300.474 199.725C299.125 198.896 297.558 196.644 296.664 195.315C295.882 194.153 294.952 193.12 294.252 192.612C293.56 192.108 292.926 191.384 292.131 190.78C290.906 189.85 290.322 189.165 289.575 188.562C288.406 187.618 287.284 186.416 286.705 185.477C285.818 184.037 284.778 183.476 284.148 182.655C283.619 181.964 283.378 180.968 282.798 179.859C282.382 179.062 281.786 178.459 280.729 177.591C278.815 176.021 277.4 177.059 276.434 176.578C275.295 176.01 271.541 175.852 269.489 176.116C268.589 176.232 267.753 176.862 266.982 177.177C265.986 177.585 265.198 177.733 264.426 178.141C263.615 178.569 262.739 178.841 261.966 178.914C261.582 178.986 261.146 179.083 260.593 179.155C260.28 179.18 259.898 179.18 259.504 179.18" stroke="black" stroke-width="2" stroke-linecap="round" stroke-linejoin="round"/>
<path d="M177.816 73.342C178.152 74.7867 178.263 77.8223 178.627 78.86C178.95 79.7816 179.272 80.7924 179.58 82.0546C179.875 83.2637 180.503 84.267 181.204 85.0843C181.882 85.8744 184.802 85.7873 186.641 85.5922C188.002 85.4478 188.855 85.0036 189.892 84.8068C191.524 84.497 192.777 85.8378 193.957 86.8208C195.225 87.878 195.918 89.8707 196.789 92.0579C197.437 93.6877 197.772 94.9195 198.276 96.2935C198.628 97.2544 198.781 98.3941 199.033 99.6294C199.518 102.003 199.232 105.067 199.119 106.161C198.979 107.514 198.559 108.599 198.334 109.525C198.073 110.601 198.054 111.849 198.22 113.139C198.459 115.005 199.117 116.278 199.23 118.406C199.305 119.828 200.348 120.984 200.827 122.111C201.226 123.05 201.64 124.516 201.976 126.893C202.455 130.278 201.978 132.763 201.894 133.655C201.588 136.897 202.313 138.031 202.816 138.957C203.331 139.902 203.433 141.001 203.91 142.346C204.594 144.278 205.562 146.046 205.956 147.029C206.414 148.17 207.187 148.909 207.917 149.665C208.703 150.477 209.709 151.263 210.828 152.129C213.428 154.141 215.084 154.681 216.186 155.468C216.929 155.999 217.95 156.198 221.277 156.199C223.404 156.2 225.293 155.807 227.854 155.639C233.29 155.282 237.18 155.693 237.879 155.944C239.336 156.469 240.54 157.092 241.832 157.71C242.745 158.148 243.793 158.828 244.776 159.532C245.976 160.391 247.267 161.129 248.838 162.109C250.468 163.127 251.811 164.997 252.625 165.531C254.095 166.496 256.295 168.246 258.422 170.373C259.659 171.611 259.83 172.844 260.055 173.882C260.266 174.856 260.446 175.871 260.755 176.769C260.834 176.997 260.95 177.217 261.063 177.47C262.069 179.731 268.233 178.064 269.609 177.448C270.74 176.942 271.32 175.992 272.72 174.703C273.631 173.863 274.459 173.466 276.416 171.709C278.962 169.424 279.336 168.034 280.318 166.882C281.051 166.023 281.969 165.061 283.064 164.525C284.005 164.065 285.72 163.49 287.212 162.956C288.159 162.617 289.144 161.697 290.352 161.106C291.629 160.48 292.79 160.126 294.023 159.732C295.836 159.152 297.721 157.604 298.482 156.79C299.307 155.909 300.358 155.528 301.535 154.689C303.183 153.513 304.226 152.895 305.85 151.997C306.94 151.395 308.037 151.267 309.578 151.126C311.445 150.956 312.965 150.372 314.346 150.005C315.712 149.642 317.065 148.354 317.906 147.68C318.992 146.81 320.093 145.663 320.906 144.961C321.811 144.181 322.447 143.14 323.26 141.992C324.08 140.835 324.354 139.275 324.971 137.957C325.764 136.259 326.036 134.96 326.904 133.471C327.482 132.48 328.165 131.593 329.453 129.969C330.589 128.536 331.586 127.388 333.179 125.653C334.244 124.494 335.118 123.352 336.125 122.314C336.869 121.548 337.526 120.772 338.536 119.792C339.52 118.836 340.664 117.523 341.731 116.43C343.711 114.399 343.305 112.588 343.444 110.77C343.614 108.557 343.194 107.432 343.081 106.31C342.892 104.427 342.353 103.006 341.989 101.517C341.556 99.7473 340.224 97.0083 339.775 95.8537C339.372 94.8187 339.268 93.6985 338.85 92.3236C338.41 90.8803 338.148 89.716 337.924 88.6506C337.688 87.5304 337.476 86.5206 337.28 85.2054C336.916 82.7636 336.13 81.6467 335.711 80.2702C335.283 78.8669 334.617 77.3851 334.057 76.1498C333.395 74.6858 332.824 73.5707 332.319 72.6449C331.696 71.5016 330.863 70.4897 330.05 69.4772C329.265 68.5001 328.229 67.5163 327.498 65.8084C327.071 64.8097 326.712 63.8735 326.515 61.5282C326.022 55.6493 326.208 54.7346 325.788 53.5018C325.339 52.1819 324.25 50.816 323.184 49.5765C321.343 47.4364 318.027 46.3256 317.044 45.5107C316.203 44.8135 315.279 44.3612 314.214 43.7448C313.028 43.059 312.306 41.9529 311.662 40.5528C310.984 39.0801 310.624 38.0847 310.23 36.0161C309.663 33.0329 310.957 31.4147 311.321 30.2921C311.656 29.2598 311.574 28.5523 311.52 28.2437C311.209 26.4895 307.543 30.6781 306.618 31.9352C305.102 33.9949 304.237 34.8254 302.416 35.4157C301.257 35.7915 299.867 35.6697 298.407 35.8093C296.283 36.0122 294.929 35.3905 292.949 35.6386C289.173 36.1116 286.63 37.3498 286.183 37.6853C284.388 39.0339 280.365 38.9761 279.035 39.4798C276.552 40.42 271.889 39.928 270.684 40.5999C268.669 41.723 265.891 42.6761 261.514 43.1798C259.1 43.4575 255.091 43.3488 252.838 43.3496C248.408 43.3513 244.815 43.1268 242.88 43.0419C239.894 42.9108 235.172 43.5674 233.74 44.6639C232.843 45.3517 232.03 45.9825 230.546 46.9899C229.423 47.7523 228.219 48.0578 227.208 48.5052C225.991 49.0441 225.135 49.3461 223.985 49.711C222.851 50.0712 222.276 51.4752 221.88 52.3716C221.223 53.8632 220.032 54.6135 218.633 55.8462C217.407 56.9261 216.447 58.0881 215.519 59.0156C214.784 59.7502 213.587 60.2206 212.213 60.7268C210.841 61.2323 207.604 61.7914 205.765 61.9335C204.658 62.0191 203.217 62.2421 201.731 62.3817C199.738 62.5689 197.274 63.083 195.956 63.39C194.582 63.71 193.13 64.0349 191.248 64.1476C189.608 64.2458 187.631 65.0978 186.565 65.7991C185.35 66.5989 184.324 67.7315 183.23 68.5178C181.74 69.5889 180.735 69.864 179.642 70.2012C179.328 70.2982 179 70.4796 178.828 70.6764C178.545 71.5458 178.265 72.2741 178.153 72.8055C178.096 73.0595 178.041 73.2815 177.479 73.8465" stroke="black" stroke-width="2" stroke-linecap="round" stroke-linejoin="round"/>
<path d="M271.748 174.684C272.146 174.288 273.043 172.891 273.794 171.989C274.409 171.25 275.193 170.64 276.067 169.891C276.914 169.164 277.69 168.542 278.515 167.966C279.425 167.331 280.537 167.241 281.487 167.264C282.619 167.292 283.733 168.086 284.834 168.388C286.055 168.723 287.081 168.688 288.306 168.937C288.774 169.032 289.578 169.087 291.442 169.237C294.631 169.494 296.876 169.337 297.721 169.412C300.414 169.651 303.2 169.588 305.044 169.265C306.069 169.085 307.063 168.293 308.041 167.617C309.164 166.841 310.76 165.649 312.012 164.397C313.514 162.895 314.561 162.346 316.032 161.995C317.762 161.582 319.498 162.244 321.104 162.368C322.75 162.495 324.351 162.094 325.452 161.721C326.781 161.271 327.648 160.499 328.724 159.774C330.189 158.786 331.593 156.659 332.946 155.029C333.681 154.143 334.744 153.206 335.595 152.653C336.698 151.936 338.392 151.602 339.366 151.353C340.604 151.037 342.63 151.152 344.78 150.904C348.511 150.472 349.729 151.003 351.23 151.376C352.21 151.619 353.23 151.602 354.055 151.9C355.543 152.438 357.277 153.598 358.201 154.744C359.17 155.944 359.726 156.845 361.047 157.52C362.264 158.142 365.25 159.828 367.17 161.565C368.132 162.437 368.868 164.087 369.618 164.69C370.418 165.333 371.066 165.988 371.94 166.588C373.684 167.785 376.611 166.941 377.636 166.443C378.466 166.039 379.26 165.841 379.859 165.94C380.907 166.113 381.554 167.537 382.632 167.788C383.735 168.045 385.352 167.642 386.329 167.191C386.921 166.918 388.642 166.791 391.432 167.111C394.693 167.485 396.989 169.735 398.735 170.234C400.934 170.862 402.736 171.434 403.791 171.859C404.705 172.227 405.586 173.032 406.638 173.832C406.871 174.009 407.136 174.033 407.288 174.158C407.997 174.737 408.584 175.88 409.387 176.431C409.776 176.698 410.386 176.632 410.885 176.731C411.728 176.898 411.983 178.029 412.784 178.554C412.982 178.684 413.182 178.779 413.136 178.829C413.089 178.88 412.793 178.88 412.739 178.905C410.892 179.752 417.931 181.028 418.23 181.276C419.166 182.051 418.731 183.572 419.055 184.821C419.336 185.901 420.128 186.77 420.628 187.843C421.699 190.141 423.218 192.004 424.549 193.665C425.64 195.027 427.373 196.512 427.922 197.562C428.609 198.873 430.611 202.388 431.769 205.6C432.54 207.738 431.924 210.751 431.871 213.169C431.843 214.483 432.469 215.547 432.943 216.646C433.532 218.01 434.813 219.043 436.014 219.82C437.086 220.515 438.159 221.54 440.78 223.538C442.098 224.542 442.757 225.985 443.535 226.84C444.261 227.638 444.957 228.539 445.882 229.362C446.121 229.575 446.306 229.786 446.408 230.012C446.51 230.237 446.51 230.485 446.411 230.637C445.996 231.275 444.618 231.435 443.69 231.962C442.769 232.484 442.067 233.833 441.591 234.782C440.762 236.431 440.269 237.529 439.593 238.43C438.726 239.585 437.721 240.479 437.07 241.402C436.12 242.75 434.825 243.275 433.973 243.927C432.819 244.808 431.576 245.374 430.9 246.025C430.194 246.705 429.229 247.322 427.656 248.222C426.311 248.992 425.431 249.124 424.779 249.622C424.021 250.202 423.38 251.069 422.508 252.168C421.55 253.374 420.733 253.968 419.935 254.37C418.815 254.932 416.498 254.57 414.742 254.446C412.245 254.269 411.045 255.017 408.475 255.145C407.239 255.207 405.751 255.218 404.696 255.345C403.716 255.462 402.451 256.018 401.549 256.268C400.473 256.565 399.055 257.067 398.077 257.417C396.954 257.818 395.556 258.117 393.783 258.416C392.619 258.613 391.408 258.716 389.861 259.439C388.874 259.899 387.418 260.761 385.863 261.587C384.883 262.108 384.063 262.361 383.064 262.663C381.758 263.058 380.22 263.162 376.281 263.288C374.408 263.349 373.422 263.812 372.323 263.937C371.073 264.08 370.026 264.412 369.15 264.562C368.238 264.719 367.577 263.566 365.507 263.389C364.325 263.287 363.035 262.967 362.005 262.367C361.623 262.144 361.082 261.816 360.21 261.666C359.397 261.526 358.781 261.763 358.408 262.087C357.655 262.739 356.788 263.56 355.464 263.838C352.842 264.387 351.197 264.013 349.691 264.46C348.359 264.856 347.295 266.75 346.566 267.906C345.769 269.172 345.541 270.203 345.043 270.955C344.46 271.834 343.994 272.553 343.369 273.327C342.655 274.212 342.046 274.9 341.048 275.85C340.149 276.704 339.3 277.448 338.449 277.826C337.659 278.176 336.752 278.351 335.154 278.426C334.047 278.479 332.855 278.65 331.953 278.702C330.88 278.764 331.602 276.258 331.576 274.138C331.553 272.261 331.602 269.963 331.452 268.69C331.236 266.857 330.853 266.015 330.677 264.645C330.267 261.442 330.253 260.221 330.053 259.071C329.861 257.968 329.752 256.381 329.603 254.999C329.464 253.708 329.054 252.328 328.73 251.302C328.596 250.88 328.405 250.426 328.032 249.977C327.244 249.03 326.158 248.878 325.285 248.054C324.289 247.116 323.415 245.143 322.56 243.906C321.997 243.091 321.512 242.085 320.389 241.234C319.358 240.452 318.514 239.585 317.541 238.338C316.797 237.386 316.167 236.24 315.665 235.314C315.021 234.126 314.815 233.042 314.59 232.192C314.297 231.083 314.165 229.897 313.916 228.944C313.675 228.021 313.715 223.632 313.84 220.828C313.949 218.354 313.616 217.355 313.267 216.354C312.862 215.194 312.019 214.156 311.42 213.48C310.565 212.515 309.722 211.459 308.549 210.285C307.721 209.458 306.53 208.266 305.624 207.335C304.94 206.633 303.931 205.071 303.101 203.74C302.478 202.742 302.225 201.866 301.752 201.041C301.256 200.177 300.679 199.369 299.954 198.294C299.4 197.471 298.481 196.869 297.283 195.846C296.192 194.915 295.334 194.072 294.311 193.274C292.122 191.564 291.437 190.526 290.661 189.799C289.962 189.144 289.338 188.476 288.438 187.602C287.705 186.89 287.339 185.979 286.614 185.178C285.952 184.447 285.639 183.581 284.941 182.333C284.182 180.976 283.193 179.936 282.144 178.809C281.096 177.684 279.497 176.485 278.547 175.91C277.348 175.184 276.299 175.334 275.125 175.234C274.051 174.984 273.049 174.885 272.552 174.735C272.252 174.684 271.856 174.684 271.449 174.684" stroke="black" stroke-width="2" stroke-linecap="round" stroke-linejoin="round"/>
<path d="M464.158 110.347C464.605 110.347 465.702 110.545 466.603 111.293C467.72 112.22 468.202 113.24 468.827 114.091C469.467 114.962 470.151 115.689 470.925 116.588C471.94 117.768 472.549 118.537 473.199 119.411C474.047 120.553 474.201 121.384 474.723 122.359C475.328 123.488 475.498 124.781 475.674 125.731C475.928 127.11 475.849 129.91 475.675 132.075C475.566 133.439 474.554 134.175 473.306 135.422C472.538 136.189 472.105 137.023 471.53 137.772C470.988 138.477 469.962 140.308 469.256 141.918C468.886 142.761 468.805 147.425 468.581 150.56C468.431 152.667 467.21 153.657 466.434 154.932C465.895 155.819 465.408 156.655 464.835 157.606C464.225 158.619 464.359 159.853 464.383 162.744C464.395 164.294 465.603 165.198 466.628 166.374C467.382 167.239 468.1 168.096 469.249 168.997C471.191 170.52 472.747 171.945 473.523 172.645C474.875 173.862 476.542 175.189 477.37 176.117C478.008 176.832 478.793 177.242 479.842 177.767C480.736 178.214 482.084 179.188 483.115 180.014C484.192 180.877 485.487 181.538 486.611 182.561C487.608 183.467 488.187 184.284 488.737 185.035C489.45 186.011 489.935 187.083 490.783 188.056C491.96 189.405 492.483 190.18 493.059 190.98C493.627 191.771 494.132 192.926 494.707 193.977C495.218 194.91 495.681 196.022 496.057 197C496.51 198.181 496.782 199.721 496.957 200.697C497.032 201.115 497.081 201.671 497.157 202.394C497.239 203.18 496.684 203.771 496.311 204.195C495.48 205.138 494.587 205.219 494.012 205.968C493.429 206.727 492.69 207.467 491.865 208.068C491.006 208.692 490.292 209.266 489.615 209.791C489.281 210.05 489.638 210.814 489.688 211.438C489.762 212.376 490.834 212.863 491.211 213.861C491.406 214.379 491.737 215.108 491.687 216.131C491.629 217.327 490.69 218.454 490.364 219.482C490.067 220.417 489.542 221.403 488.842 222.429C487.881 223.836 487.393 224.803 486.817 225.603C486.299 226.324 485.744 227.051 484.746 228.05C484.048 228.75 482.999 229.149 482.023 229.626C481.168 230.045 480.1 229.952 478.677 230.077C477.75 230.158 474.479 230.252 472.156 230.625C471.287 230.765 470.211 231.349 469.208 231.774C468.036 232.271 466.811 232.3 465.836 232.375C464.114 232.509 462.615 232.599 457.758 232.626C455.272 232.639 452.773 232.402 451.846 232.177C450.802 231.923 449.626 231.454 448.35 230.854C447.437 230.424 446.577 230.054 445.552 229.332C443.913 228.177 443.676 226.709 443.128 225.834C442.379 224.638 441.58 224.11 440.854 223.485C440.133 222.865 439.68 221.763 439.131 220.963C438.468 219.998 437.384 219.164 436.484 218.316C435.171 217.077 434.635 216.217 433.936 215.219C432.728 213.495 432.537 212.272 432.334 211.271C432.072 209.973 431.985 209.074 431.909 208.198C431.825 207.219 431.586 206.226 431.46 205.35C431.311 204.322 431.086 203.328 430.761 202.03C430.529 201.099 429.74 199.934 428.989 198.681C428.424 197.739 427.74 196.535 427.214 195.757C426.789 195.128 426.391 194.335 425.916 193.559C425.411 192.737 424.446 191.49 423.668 190.437C423.067 189.623 422.195 189.188 421.694 188.289C421.1 187.223 420.396 186.391 419.796 185.168C419.252 184.061 418.996 183.046 418.447 181.895C417.96 180.873 416.155 180.396 415.126 179.894C413.876 179.284 412.455 177.65 411.678 176.897C410.923 176.167 409.856 175.647 408.931 175.347C407.613 174.919 406.808 173.9 406.032 173.175C405.36 172.547 404.065 171.754 402.712 171.126C400.715 170.2 399.314 169.502 398.364 169.227C397.399 168.946 395.528 168.504 394.018 168.078C392.915 167.766 391.82 167.254 391.019 166.978C390.608 166.837 390.219 166.653 388.658 166.578C381.982 166.258 381.178 166.055 380.378 165.68C379.283 165.166 377.581 165.602 373.348 165.579C371.255 165.568 370.237 164.307 369.561 163.632C368.936 163.008 367.989 162.509 366.915 161.486C365.812 160.436 364.79 159.661 363.842 159.285C362.521 158.761 361.694 158.012 360.844 157.387C359.815 156.631 359.095 156.064 357.899 155.291C355.346 153.639 354.2 153.015 353.474 152.441C352.971 152.043 352.449 151.666 352.124 151.243C351.818 150.843 351.897 149.328 351.972 147.456C352.006 146.593 352.594 146.221 353.192 145.748C354.431 144.765 355.638 144.922 356.79 144.671C357.796 144.451 359.086 144.121 360.235 143.996C363.629 143.627 367.131 143.372 368.154 143.222C370.151 142.93 371.175 142.125 372.203 141.227C372.988 140.54 372.929 139.478 374.323 138.031C375.438 136.875 376.274 136.43 378.392 134.984C380.329 133.662 381.565 133.033 382.868 132.208C384.358 131.265 385.366 130.584 387.088 129.735C388.195 129.189 389.658 128.438 391.112 127.736C392.678 126.979 394.757 125.938 396.429 125.462C399.275 124.651 400.453 124.937 402.075 124.587C404.32 124.104 405.651 124.187 409.462 124.161C411.156 124.149 412.246 124.634 413.17 124.785C414.13 124.942 416.973 126.175 418.766 127.082C420.528 127.974 423.735 127.185 426.401 126.537C429.121 125.877 431.91 125.44 433.828 125.061C435.207 124.789 436.326 124.538 439.49 123.566C441.246 123.027 441.772 122.14 443.195 120.795C444.297 119.752 444.821 118.594 445.545 117.471C446.108 116.6 446.769 115.848 447.394 115.096C448.243 114.076 449.563 113.099 450.392 112.348C451.056 111.746 452.162 111.399 453.064 111.222C453.868 111.064 454.662 110.848 455.487 110.772C457.447 110.592 460.555 110.746 461.831 110.822C462.306 110.896 463.103 110.947 464.077 110.873C464.457 110.798 464.605 110.65 464.908 110.497" stroke="black" stroke-width="2" stroke-linecap="round" stroke-linejoin="round"/>
<path d="M386.666 12.6639C386.428 13.6127 386.309 14.9224 386.16 17.1755C385.76 23.2504 385.833 24.2135 385.624 25.7885C385.275 28.4229 386.187 29.6309 386.723 30.7066C387.363 31.9899 389.103 32.4933 390.057 33.4162C391.298 34.6166 391.787 36.4813 392.381 37.4962C392.991 38.5381 393.984 40.0513 394.704 41.3369C395.827 43.3449 398.09 45.4687 399.288 47.1724C400.49 48.8805 401.907 50 402.596 51.1944C403.283 52.3855 404.53 53.577 405.631 55.0636C406.404 56.1059 406.853 57.4471 407.509 58.4308C408.185 59.4423 408.815 62.1963 409.209 64.5924C409.604 67 409.122 70.251 408.852 71.4437C408.579 72.6494 407.928 73.7066 407.632 75.2522C407.146 77.7828 406.209 79.7137 405.28 81.0931C404.66 82.0134 404.06 82.7619 403.613 83.3256C402.741 84.4267 403.64 87.4468 403.788 89.7856C403.913 91.7527 403.997 93.5325 403.701 94.8806C403.425 96.1363 403.344 97.4705 403.253 99.1661C403.193 100.302 402.393 101.105 402.062 102.412C401.462 104.784 401.853 107.462 402.595 111.251C402.917 112.899 403.519 114.205 403.996 115.25C404.571 116.51 406.663 118.604 408.192 119.985C408.953 120.672 409.476 121.356 409.625 121.831C409.697 122.061 409.597 122.306 409.449 122.457C408.748 123.171 407.635 123.679 406.652 123.978C405.517 124.323 404.183 124.572 399.667 124.723C397.737 124.788 396.086 125.287 394.385 125.557C392.754 125.815 390.961 126.595 389.589 127.341C388.568 127.897 387.506 128.621 386.343 129.574C385.435 130.318 384.229 131.061 383.275 131.808C382.382 132.507 380.72 133.027 379.464 133.684C377.942 134.481 376.371 136.061 375.56 137.227C374.819 138.293 373.926 139.281 372.911 140.205C372.05 140.99 371.068 141.546 369.964 142.053C368.49 142.73 367.137 142.858 365.766 142.948C365.049 142.995 362.979 143.097 360.093 143.215C358.294 143.289 356.305 144.401 354.102 145.413C352.674 146.069 352.66 147.618 351.917 148.484C350.942 149.621 349.509 150.062 347.047 150.392C342.456 151.009 338.845 150.718 337.954 151.282C336.566 152.161 335.926 153.217 335.358 154.29C334.758 155.425 333.245 156.137 332.352 156.704C331.331 157.353 329.976 158.635 328.482 159.533C327.376 160.197 325.748 161.079 324.431 161.619C322.936 162.231 317.736 162.037 314.991 162.6C313.558 162.893 312.58 163.881 311.3 164.387C310.044 164.884 308.949 165.785 307.607 166.649C306.194 167.559 304.84 167.454 297.535 167.546C294.005 167.591 290.424 167.279 289.144 167.07C287.934 166.872 286.615 166.743 285.391 166.356C284.277 166.004 283.275 165.433 282.77 165.018C282.524 164.816 282.441 164.485 282.586 164.126C283.324 162.312 286.472 161.922 288.478 161.65C290.44 161.383 293.39 160.607 294.584 160.193C296.222 159.624 297.085 158.588 297.98 157.247C298.678 156.203 299.526 155.311 300.422 154.357C301.348 153.371 302.974 152.631 304.499 152.24C306.725 151.669 308.813 151.852 310.158 151.615C312.009 151.289 313.638 150.784 315.161 150.275C316.362 149.875 317.926 149.001 319.42 147.599C320.526 146.561 321.028 145.07 322.188 142.87C324.261 138.941 325.076 136.736 325.765 135.418C326.294 134.406 326.985 133.277 327.552 131.905C328.07 130.652 329.247 129.464 330.23 128.449C331.477 127.163 333.471 125.476 334.757 124.191C335.572 123.377 336.276 122.435 337.229 121.481C338.29 120.419 339.846 118.211 340.832 116.955C341.939 115.545 342.887 114.455 343.484 113.382C344.222 112.053 344.377 110.232 344.41 106.008C344.424 104.16 343.191 102.959 342.684 101.827C342.112 100.55 341.347 98.7963 340.6 97.6277C339.519 95.9374 338.545 93.3145 338.216 91.9414C337.867 90.4825 337.53 89.3229 337.382 88.1293C337.19 86.5877 337.173 84.9203 337.024 83.0397C336.83 80.5703 336.462 79.2563 335.746 78.0342C335.004 76.7665 334.439 75.2683 333.098 73.8058C331.954 72.5583 330.808 70.5083 329.701 68.8324C329.026 67.8097 328.303 66.6311 327.675 65.2892C326.931 63.699 326.81 61.2815 326.661 59.2151C326.531 57.3978 326.452 55.6175 326.304 54.2989C326.19 53.2882 325.859 52.0976 324.908 50.9344C324.143 49.9994 322.829 48.7063 321.247 47.3913C320.118 46.4517 317.359 45.0149 314.175 43.2594C312.446 42.3057 311.921 41.6719 311.772 41.1073C311.461 39.923 311.147 38.4003 310.938 36.1151C310.602 32.4406 311.084 29.7596 311.441 29.2843C312.175 28.3058 313.345 27.6762 314.832 26.664C316.18 25.7467 317.097 25.4106 318.583 25.2016C319.815 25.0283 320.792 25.1122 322.476 25.0524C326.575 24.9067 330.785 25.407 333.52 25.7644C337.081 26.2297 338.181 25.4714 339.194 24.7576C340.506 23.8332 340.982 22.7341 341.578 21.721C342.231 20.611 341.997 19.5179 342.323 18.5343C342.717 17.3473 343.065 15.8872 343.484 14.6633C343.857 13.5745 344.674 12.6103 346.041 11.0022C346.615 10.3273 347.177 9.98555 347.622 9.71753C347.864 9.57146 348.244 9.62641 348.426 9.89174C349.342 11.2262 349.498 12.4209 350.569 13.4054C351.02 13.8203 351.703 13.4393 352.178 13.2902C353.433 12.8962 354.797 15.2797 355.455 16.1454C356.157 17.0704 358.006 18.4351 359.503 19.0944C360.609 19.5816 363.002 19.6322 364.833 19.3062C365.748 19.1431 366.533 19.0373 366.979 18.8595C368.055 18.4301 368.795 17.0164 369.688 15.7657C370.475 14.6645 371.296 13.6823 372.516 12.4888C372.785 12.2253 373.14 12.3065 373.469 12.4245C374.862 12.9243 375.524 13.9718 376.656 14.8938C377.661 15.7128 379.39 15.5227 381.329 15.1377C382.553 14.3935 383.979 13.5608 385.499 12.6076C385.83 12.4263 386.066 12.3673 386.487 12.1279" stroke="black" stroke-width="2" stroke-linecap="round" stroke-linejoin="round"/>
<path d="M521.789 33.6136C522.204 33.6136 523.154 33.8495 524.85 34.9197C525.938 35.6065 526.907 36.2902 528.068 37.2425C529.391 38.3271 529.944 39.4456 530.424 40.4587C531.017 41.7123 531.377 42.6617 531.586 44.4726C531.84 46.6747 531.793 48.2632 532.179 48.5902C533.155 49.4172 534.947 49.0976 536.523 49.4532C539.054 50.0243 539.117 52.3102 539.744 53.3528C540.634 54.8347 541.026 56.1196 541.027 60.1612C541.028 61.7774 539.9 62.7913 539.479 63.8357C539.036 64.9362 539.003 66.0682 538.794 67.7639C538.658 68.8651 538.585 70.0563 538.2 71.3687C537.76 72.8685 536.98 73.7513 536.265 74.5571C535.494 75.4252 534.658 76.1348 533.764 76.6432C533.331 76.8895 529.626 76.8531 524.327 76.9121C521.223 76.9466 519.531 78.9936 518.577 79.9764C517.781 80.7956 516.908 81.4343 515.749 82.2697C514.289 83.3224 512.448 84.7077 511.163 85.8128C509.774 87.0061 508.396 87.7487 507.291 88.1088C506.15 88.4804 504.94 88.7636 502.918 89.506C501.223 90.1279 500.355 91.2615 498.983 92.0673C497.122 93.1603 494.577 94.5992 493.681 95.1951C492.739 95.8214 491.422 96.0286 489.575 96.7728C488.183 97.3336 486.715 97.6974 485.02 98.4094C482.657 99.4017 481.77 100.017 479.779 101.416C478.374 102.403 477.306 103.233 476.29 104.187C475.333 105.084 474.265 106.152 473.253 106.868C472.355 107.503 471.231 108.179 469.385 108.923C468.181 109.408 467.061 109.49 465.987 109.729C464.186 110.129 461.822 111.037 460.389 111.218C459.17 111.371 457.888 111.634 456.489 111.873C455.214 112.09 452.127 112.524 449.878 113.449C448.614 113.968 446.288 116.619 444.338 118.599C443.433 119.518 442.404 120.386 441.331 121.546C439.454 123.576 438.233 123.902 437.191 124.201C435.776 124.607 434.424 124.499 431.569 124.589C429.832 124.644 427.872 124.856 424.914 125.035C422.608 125.174 418.654 125.096 416.442 125.066C413.148 125.022 411.968 124.324 410.273 123.224C409.101 122.464 408.513 120.875 408.034 119.294C407.69 118.158 407.201 116.941 406.399 115.869C405.123 114.163 404.164 113.31 403.36 112.027C402.574 110.771 402.495 109.379 402.137 107.506C401.439 103.843 402.788 102.114 403 100.385C403.166 99.028 404.099 97.29 404.547 96.0053C404.963 94.8121 405.114 90.4074 404.669 85.7101C404.53 84.2403 404.399 81.4022 404.754 79.242C405.191 76.5816 406.361 75.8454 407.64 73.3225C409.484 69.6829 409.695 67.1046 409.909 63.3157C410.02 61.3504 408.87 58.5246 407.977 56.3117C407.501 55.1333 406.429 54.2864 405.594 53.2125C404.609 51.9457 403.688 51.3061 403.121 50.4422C402.126 48.9276 399.586 46.4282 396.4 42.9771C394.853 41.3009 394.04 39.2812 393.383 38.0251C392.659 36.6402 391.721 34.5177 390.823 33.141C390.177 32.1501 388.98 30.5868 388.025 29.2414C386.192 26.6594 385.878 24.0294 385.669 22.0989C385.332 18.9828 386.114 17.6579 386.501 16.4062C386.931 15.0141 386.889 14.0236 387.215 12.8917C387.558 11.7031 388.019 10.6288 388.851 10.0597C389.764 9.43602 392.174 9.67107 393.853 9.34499C395.213 9.08078 396.652 8.89919 398.081 8.48109C399.289 8.12741 400.758 7.88789 402.25 7.49838C404.515 6.90695 407.608 6.04039 408.89 5.77058C409.962 5.54511 410.889 5.79917 411.335 5.97695C412.299 6.36134 413.09 7.34472 414.429 7.82357C416.037 8.39841 418.736 6.81584 420.595 6.48529C421.652 6.29715 423.21 6.63359 424.526 6.78189C426.307 6.98279 427.86 5.80453 430.446 3.3674C432.118 1.79194 434.463 1.09822 436.495 1.00441C438.069 0.931742 439.177 1.7486 442.532 1.86831C444.931 1.95389 446.202 2.7599 447.308 3.29593C448.521 3.88446 449.361 4.66458 451.057 6.12168C452.123 7.03779 453.114 7.58414 456.084 7.67616C458.18 7.74108 459.725 7.40904 460.857 7.31881C462.247 7.20793 464.009 6.81226 467.074 6.36736C468.771 6.12087 472.096 5.91888 474.286 6.15563C475.879 6.32787 476.581 7.64132 477.237 8.59545C477.859 9.498 478.25 10.6788 478.608 11.6919C479.055 12.9558 479.322 13.895 479.621 14.9081C479.98 16.1215 480.154 17.2291 480.484 18.4798C481.236 21.3323 482.656 23.2468 484.884 25.5643C485.915 26.6371 487.062 26.999 488.046 27.3885C489.247 27.8643 490.632 28.9037 491.826 29.8275C493.776 31.3355 494.924 31.5874 496.293 32.211C496.888 32.4816 497.661 33.5475 498.91 34.5892C500.746 36.1205 503.857 34.8072 504.989 34.1818C505.56 33.8666 506.182 33.7333 508.781 33.644C511.084 33.5648 515.389 33.6136 517.813 33.7021C521.77 33.8465 523.512 34.6857 524.614 35.0117C525.12 35.1609 525.599 35.3396 526.103 35.6657C526.372 35.8739 526.667 36.1687 527.507 36.8298" stroke="black" stroke-width="2" stroke-linecap="round" stroke-linejoin="round"/>
<path d="M568.736 99.0089C568.736 99.2447 568.736 99.661 568.501 100.226C567.868 101.741 564.941 101.153 563.172 100.797C561.831 100.528 560.703 99.7271 559.657 98.8633C558.841 98.1894 558.019 97.583 557.126 96.8969C556.247 96.2221 554.689 96.3287 553.494 96.5655C552.05 96.8514 550.819 98.6444 549.266 100.193C547.648 101.807 547.299 103.29 546.197 105.581C545.516 106.999 545.687 108.65 546.28 109.578C546.864 110.49 547.056 112.045 547.561 113.269C548.091 114.556 549.493 115.086 550.746 116.573C551.526 117.499 551.998 118.538 552.446 119.701C552.833 120.707 553.07 121.815 553.34 123.184C553.643 124.721 553.906 125.685 553.521 126.819C553.351 127.32 552.836 127.595 552.362 127.863C552.091 128.016 551.651 127.954 551.173 127.748C548.758 126.705 548.489 123.613 548.19 122.301C548.067 121.766 547.833 121.168 547.447 120.514C547.261 120.199 547.002 119.978 546.439 119.857C543.496 119.223 540.699 121.157 539.347 121.818C536.836 123.044 538.84 129.259 538.63 130.718C538.426 132.136 537.886 133.608 537.292 135.006C536.557 136.735 536.16 137.717 535.564 139.709C535.161 141.057 534.67 142.363 534.432 143.465C534.158 144.728 534.488 146.647 534.639 148.643C534.79 150.641 534.906 152.19 534.908 153.886C534.909 155.221 533.305 156.299 532.29 157.224C531.409 158.027 530.207 158.326 528.927 158.804C527.831 159.214 526.458 159.398 525.263 159.668C523.485 160.071 521.573 161.599 520.201 162.881C519.107 163.903 518.057 165.115 517.28 166.068C516.37 167.185 516.209 168.803 515.642 170.058C515.148 171.152 513.708 171.726 512.696 172.53C511.568 173.426 511.564 175.235 511.293 176.727C511.042 178.112 510.313 179.463 509.746 181.044C508.874 183.475 508.169 185.184 507.483 187.444C506.767 189.803 505.189 192.331 504.565 193.375C503.87 194.54 502.162 195.84 500.992 196.92C500.045 197.794 499.174 198.824 498.223 199.897C497.997 200.151 497.806 200.314 497.567 200.258C496.175 199.93 495.487 196.88 494.737 195.082C494.123 193.609 493.814 192.403 493.248 191.388C492.729 190.458 492.088 188.833 491.402 187.339C490.836 186.108 489.351 185.134 488.455 184.389C487.302 183.431 486.135 182.336 484.853 181.115C483.664 179.983 482.143 178.523 481.16 177.719C479.083 176.019 476.844 174.892 473.93 171.979C472.729 170.778 472.076 169.768 471.421 168.816C470.393 167.323 468.921 166.731 468.145 165.985C467.275 165.151 466.655 164.111 466.03 163.157C465.422 162.229 464.515 160.427 464.388 158.277C464.249 155.929 466.295 155.177 466.859 154.075C467.46 152.901 467.963 151.486 468.438 150.174C468.817 149.126 469.21 147.794 469.778 145.712C470.442 143.273 470.761 142.077 470.97 140.675C471.151 139.462 471.18 138.028 471.919 136.448C473.011 134.116 474.392 133.379 474.959 132.454C475.5 131.573 476.236 130.166 477.162 128.289C478.184 126.219 477.079 123.852 476.453 122.45C475.794 120.975 474.757 119.978 474.042 118.818C472.753 116.725 471.898 115.987 471.004 115.034C469.984 113.946 468.925 112.066 467.995 110.775C467.692 110.353 467.37 109.615 467.101 108.812C466.995 108.496 467.245 108.304 467.454 108.183C468.344 107.67 469.507 107.764 470.55 106.816C472.033 105.468 472.963 104.612 474.24 103.747C476.394 102.289 478.612 101.814 480.821 100.71C482.1 100.07 483.383 99.309 484.843 98.6542C485.941 98.1614 487.546 97.4651 489.693 96.3931C492.751 94.8662 494.575 94.249 496.07 93.4431C497.632 92.6008 498.692 91.8654 499.734 91.2981C500.874 90.6773 502.026 90.1358 503.039 89.7195C504.312 89.1963 505.421 89.0638 507.561 87.8765C508.828 87.1739 509.413 86.0299 511.106 84.5719C512.519 83.3558 513.579 82.635 514.741 81.948C516.432 80.9486 517.51 80.3694 518.377 79.7146C519.254 79.0513 520.841 78.4076 522.334 77.6893C524.476 76.6596 526.497 76.4993 528.558 76.2876C529.784 76.1615 531.089 76.0205 532.756 76.0482C534.61 76.079 535.678 78.2789 536.571 79.1723C537.496 80.0974 538.712 81.1342 539.61 82.1803C540.337 83.028 541.217 83.9358 542.375 85.1553C544.614 87.5108 545.149 88.2866 545.329 88.643C545.747 89.4726 543.904 90.0715 543.692 91.291C543.584 91.9124 543.543 92.6319 543.661 93.2868C543.743 93.744 544.553 93.7665 545.088 94.0631C546.206 94.6829 545.923 96.3859 546.398 96.7727C546.801 97.1007 547.529 97.0434 548.273 96.9845C549.42 96.8935 549.854 95.2031 550.124 93.9515C550.2 93.6 550.154 93.1805 550.302 92.9678C550.581 92.5646 551.224 92.5194 551.492 91.9851C552.058 90.8576 551.762 88.1311 552.206 86.2371C552.343 85.6521 553.426 85.7869 554.198 85.8753C555.486 86.0227 556.401 87.8023 557.506 89.6213C558.654 91.5113 559.856 92.2156 560.723 92.9017C561.739 93.7062 563.133 94.4205 564.087 95.1647C564.876 95.7802 565.813 96.2072 566.619 96.8326C567.543 97.5169 568.258 98.2924 568.615 98.8552C568.736 99.2412 568.736 99.8308 568.2 100.796" stroke="black" stroke-width="2" stroke-linecap="round" stroke-linejoin="round"/>
</svg>
